<?xml version="1.0" encoding="UTF-8"?>
<svg xmlns="http://www.w3.org/2000/svg" version="1.1" width="300" height="300" viewBox="0 0 300 300"><rect x="0" y="0" width="300" height="300" fill="#ffffff"/><g transform="scale(5.66)"><g transform="translate(0,0)"><path fill-rule="evenodd" d="M9 0L9 1L8 1L8 2L10 2L10 1L11 1L11 3L8 3L8 4L9 4L9 5L8 5L8 7L9 7L9 8L6 8L6 9L7 9L7 10L6 10L6 11L3 11L3 9L4 9L4 10L5 10L5 8L0 8L0 9L1 9L1 10L0 10L0 15L2 15L2 16L1 16L1 18L0 18L0 21L1 21L1 22L0 22L0 24L1 24L1 25L0 25L0 27L1 27L1 26L2 26L2 27L3 27L3 29L4 29L4 30L3 30L3 31L2 31L2 32L3 32L3 33L1 33L1 31L0 31L0 33L1 33L1 34L2 34L2 36L0 36L0 40L1 40L1 41L0 41L0 43L1 43L1 44L3 44L3 45L4 45L4 44L3 44L3 43L7 43L7 42L8 42L8 41L9 41L9 43L8 43L8 44L6 44L6 45L8 45L8 47L10 47L10 49L11 49L11 48L13 48L13 47L14 47L14 45L15 45L15 49L14 49L14 50L12 50L12 51L11 51L11 52L13 52L13 53L14 53L14 52L15 52L15 51L16 51L16 53L17 53L17 50L18 50L18 51L20 51L20 50L19 50L19 49L20 49L20 48L19 48L19 46L20 46L20 47L21 47L21 48L22 48L22 49L21 49L21 50L22 50L22 51L21 51L21 52L20 52L20 53L22 53L22 51L23 51L23 52L24 52L24 53L25 53L25 52L24 52L24 50L25 50L25 51L27 51L27 52L26 52L26 53L28 53L28 52L29 52L29 50L31 50L31 49L29 49L29 47L30 47L30 48L33 48L33 49L32 49L32 50L34 50L34 51L30 51L30 53L31 53L31 52L33 52L33 53L34 53L34 51L35 51L35 53L40 53L40 52L41 52L41 50L43 50L43 51L42 51L42 53L44 53L44 52L43 52L43 51L44 51L44 50L45 50L45 49L50 49L50 47L51 47L51 48L52 48L52 49L51 49L51 50L50 50L50 51L49 51L49 50L47 50L47 52L46 52L46 53L48 53L48 51L49 51L49 52L50 52L50 53L51 53L51 52L52 52L52 51L53 51L53 50L52 50L52 49L53 49L53 48L52 48L52 46L53 46L53 45L52 45L52 44L53 44L53 43L51 43L51 41L52 41L52 42L53 42L53 41L52 41L52 40L53 40L53 39L51 39L51 37L52 37L52 38L53 38L53 35L52 35L52 34L53 34L53 33L52 33L52 32L53 32L53 31L52 31L52 32L50 32L50 30L51 30L51 29L52 29L52 30L53 30L53 29L52 29L52 28L53 28L53 27L51 27L51 26L53 26L53 25L51 25L51 24L52 24L52 23L51 23L51 22L53 22L53 21L52 21L52 20L53 20L53 19L51 19L51 20L50 20L50 17L51 17L51 18L53 18L53 17L52 17L52 16L50 16L50 15L51 15L51 12L50 12L50 11L49 11L49 12L45 12L45 11L44 11L44 9L45 9L45 10L46 10L46 11L47 11L47 10L46 10L46 8L44 8L44 9L43 9L43 3L44 3L44 4L45 4L45 3L44 3L44 1L43 1L43 0L41 0L41 1L42 1L42 2L43 2L43 3L42 3L42 4L40 4L40 3L41 3L41 2L40 2L40 1L38 1L38 0L37 0L37 1L36 1L36 0L35 0L35 1L33 1L33 0L30 0L30 1L31 1L31 2L30 2L30 3L33 3L33 5L34 5L34 7L35 7L35 5L34 5L34 4L35 4L35 3L34 3L34 2L37 2L37 3L36 3L36 4L37 4L37 3L39 3L39 5L38 5L38 7L37 7L37 6L36 6L36 7L37 7L37 8L34 8L34 9L37 9L37 11L38 11L38 9L39 9L39 8L42 8L42 10L43 10L43 11L44 11L44 13L45 13L45 15L42 15L42 16L44 16L44 17L42 17L42 18L41 18L41 17L39 17L39 16L41 16L41 15L40 15L40 12L41 12L41 11L39 11L39 12L38 12L38 13L37 13L37 12L36 12L36 10L33 10L33 11L31 11L31 12L33 12L33 14L34 14L34 15L32 15L32 14L31 14L31 13L30 13L30 14L29 14L29 13L28 13L28 12L26 12L26 9L28 9L28 10L27 10L27 11L28 11L28 10L29 10L29 11L30 11L30 10L31 10L31 8L33 8L33 6L32 6L32 7L31 7L31 6L30 6L30 5L31 5L31 4L30 4L30 5L29 5L29 3L28 3L28 4L27 4L27 3L25 3L25 4L24 4L24 2L23 2L23 4L22 4L22 0L21 0L21 3L20 3L20 4L19 4L19 2L20 2L20 1L19 1L19 0L16 0L16 1L15 1L15 2L16 2L16 4L13 4L13 0L12 0L12 1L11 1L11 0ZM23 0L23 1L24 1L24 0ZM25 0L25 1L26 1L26 2L27 2L27 1L26 1L26 0ZM28 0L28 1L29 1L29 0ZM32 1L32 2L33 2L33 1ZM37 1L37 2L38 2L38 1ZM11 4L11 7L12 7L12 4ZM16 4L16 6L15 6L15 5L13 5L13 7L14 7L14 8L12 8L12 10L10 10L10 12L9 12L9 10L7 10L7 11L6 11L6 12L9 12L9 13L8 13L8 15L5 15L5 14L7 14L7 13L1 13L1 14L4 14L4 16L10 16L10 17L11 17L11 22L9 22L9 21L10 21L10 19L9 19L9 20L7 20L7 19L8 19L8 18L9 18L9 17L8 17L8 18L7 18L7 17L6 17L6 18L7 18L7 19L5 19L5 22L7 22L7 21L8 21L8 22L9 22L9 23L11 23L11 22L12 22L12 23L14 23L14 24L11 24L11 25L10 25L10 26L9 26L9 28L10 28L10 27L12 27L12 26L13 26L13 28L12 28L12 29L8 29L8 31L9 31L9 32L7 32L7 31L6 31L6 30L7 30L7 29L6 29L6 30L5 30L5 32L4 32L4 31L3 31L3 32L4 32L4 34L5 34L5 35L6 35L6 36L8 36L8 35L6 35L6 34L7 34L7 33L8 33L8 34L9 34L9 32L10 32L10 36L9 36L9 37L8 37L8 39L5 39L5 38L4 38L4 35L3 35L3 38L2 38L2 39L3 39L3 38L4 38L4 41L5 41L5 40L7 40L7 41L6 41L6 42L7 42L7 41L8 41L8 39L10 39L10 41L12 41L12 43L13 43L13 44L15 44L15 43L16 43L16 44L17 44L17 45L16 45L16 46L17 46L17 47L18 47L18 46L19 46L19 45L20 45L20 46L21 46L21 47L22 47L22 46L21 46L21 45L20 45L20 44L19 44L19 45L18 45L18 44L17 44L17 43L20 43L20 42L18 42L18 41L21 41L21 42L22 42L22 43L24 43L24 42L23 42L23 38L25 38L25 39L24 39L24 40L25 40L25 44L26 44L26 43L27 43L27 44L29 44L29 46L30 46L30 47L31 47L31 46L30 46L30 43L31 43L31 45L34 45L34 46L32 46L32 47L34 47L34 48L35 48L35 49L34 49L34 50L35 50L35 51L36 51L36 52L40 52L40 50L41 50L41 49L43 49L43 50L44 50L44 47L43 47L43 46L42 46L42 43L43 43L43 42L42 42L42 40L43 40L43 41L44 41L44 40L43 40L43 39L44 39L44 36L43 36L43 38L42 38L42 35L44 35L44 33L46 33L46 35L47 35L47 36L46 36L46 37L49 37L49 36L52 36L52 35L50 35L50 34L51 34L51 33L50 33L50 32L48 32L48 33L49 33L49 34L48 34L48 35L47 35L47 33L46 33L46 32L42 32L42 31L45 31L45 29L44 29L44 27L43 27L43 26L44 26L44 25L43 25L43 24L46 24L46 23L45 23L45 21L44 21L44 20L42 20L42 19L43 19L43 18L42 18L42 19L41 19L41 20L40 20L40 18L39 18L39 17L38 17L38 18L37 18L37 19L36 19L36 18L35 18L35 16L37 16L37 15L36 15L36 14L37 14L37 13L36 13L36 12L35 12L35 11L34 11L34 12L35 12L35 13L34 13L34 14L35 14L35 15L34 15L34 16L30 16L30 15L31 15L31 14L30 14L30 15L29 15L29 14L27 14L27 13L26 13L26 12L25 12L25 14L24 14L24 13L23 13L23 12L24 12L24 11L23 11L23 10L25 10L25 9L23 9L23 8L24 8L24 4L23 4L23 5L22 5L22 4L20 4L20 5L22 5L22 6L21 6L21 7L20 7L20 6L19 6L19 4ZM9 5L9 7L10 7L10 5ZM17 5L17 6L16 6L16 7L15 7L15 6L14 6L14 7L15 7L15 8L16 8L16 7L17 7L17 6L18 6L18 7L19 7L19 6L18 6L18 5ZM25 5L25 8L28 8L28 5ZM40 5L40 6L39 6L39 7L40 7L40 6L41 6L41 7L42 7L42 6L41 6L41 5ZM22 6L22 7L23 7L23 6ZM26 6L26 7L27 7L27 6ZM29 6L29 7L30 7L30 8L31 8L31 7L30 7L30 6ZM44 6L44 7L45 7L45 6ZM9 8L9 9L10 9L10 8ZM17 8L17 9L18 9L18 10L17 10L17 11L18 11L18 12L16 12L16 11L15 11L15 10L16 10L16 9L15 9L15 10L14 10L14 9L13 9L13 10L12 10L12 11L11 11L11 12L10 12L10 13L9 13L9 14L10 14L10 16L13 16L13 17L12 17L12 19L13 19L13 17L16 17L16 18L15 18L15 19L16 19L16 21L12 21L12 22L16 22L16 21L17 21L17 23L18 23L18 21L19 21L19 24L21 24L21 25L18 25L18 24L17 24L17 25L18 25L18 27L17 27L17 28L16 28L16 27L15 27L15 28L16 28L16 29L14 29L14 30L11 30L11 31L10 31L10 30L9 30L9 31L10 31L10 32L11 32L11 38L10 38L10 37L9 37L9 38L10 38L10 39L13 39L13 40L14 40L14 39L13 39L13 36L12 36L12 35L13 35L13 34L12 34L12 32L11 32L11 31L14 31L14 32L13 32L13 33L16 33L16 34L15 34L15 35L14 35L14 36L15 36L15 35L16 35L16 37L14 37L14 38L15 38L15 40L16 40L16 39L18 39L18 38L16 38L16 37L19 37L19 38L20 38L20 40L21 40L21 41L22 41L22 40L21 40L21 39L22 39L22 38L23 38L23 37L22 37L22 33L23 33L23 34L24 34L24 35L23 35L23 36L24 36L24 37L25 37L25 33L26 33L26 36L27 36L27 35L29 35L29 34L28 34L28 33L26 33L26 31L24 31L24 32L25 32L25 33L23 33L23 29L24 29L24 30L26 30L26 29L28 29L28 31L27 31L27 32L28 32L28 31L30 31L30 32L33 32L33 33L32 33L32 34L34 34L34 35L35 35L35 34L34 34L34 33L37 33L37 32L38 32L38 31L39 31L39 32L41 32L41 31L42 31L42 30L44 30L44 29L43 29L43 27L42 27L42 26L43 26L43 25L42 25L42 26L41 26L41 27L40 27L40 26L38 26L38 24L41 24L41 23L42 23L42 22L43 22L43 23L44 23L44 21L42 21L42 22L41 22L41 23L40 23L40 20L39 20L39 22L38 22L38 21L37 21L37 20L38 20L38 19L39 19L39 18L38 18L38 19L37 19L37 20L36 20L36 23L37 23L37 22L38 22L38 24L35 24L35 22L34 22L34 19L35 19L35 18L32 18L32 17L30 17L30 16L29 16L29 15L28 15L28 18L27 18L27 16L25 16L25 15L24 15L24 14L23 14L23 13L22 13L22 10L21 10L21 9L22 9L22 8L21 8L21 9L18 9L18 8ZM37 8L37 9L38 9L38 8ZM47 8L47 9L48 9L48 8ZM49 8L49 10L50 10L50 8ZM51 8L51 10L53 10L53 9L52 9L52 8ZM29 9L29 10L30 10L30 9ZM40 9L40 10L41 10L41 9ZM13 10L13 11L12 11L12 13L10 13L10 14L11 14L11 15L13 15L13 16L14 16L14 15L13 15L13 13L16 13L16 14L17 14L17 15L18 15L18 14L19 14L19 13L16 13L16 12L14 12L14 10ZM18 10L18 11L20 11L20 10ZM2 11L2 12L3 12L3 11ZM52 11L52 14L53 14L53 11ZM20 13L20 14L21 14L21 15L22 15L22 13ZM38 13L38 14L39 14L39 13ZM42 13L42 14L43 14L43 13ZM46 13L46 14L47 14L47 15L45 15L45 16L47 16L47 17L46 17L46 18L47 18L47 19L46 19L46 20L49 20L49 19L48 19L48 18L49 18L49 17L50 17L50 16L49 16L49 14L47 14L47 13ZM26 14L26 15L27 15L27 14ZM23 15L23 17L22 17L22 16L20 16L20 17L19 17L19 18L20 18L20 19L19 19L19 20L20 20L20 23L21 23L21 24L22 24L22 25L21 25L21 26L22 26L22 29L20 29L20 28L19 28L19 27L20 27L20 26L19 26L19 27L18 27L18 28L19 28L19 29L16 29L16 30L15 30L15 31L16 31L16 33L18 33L18 32L17 32L17 31L18 31L18 30L19 30L19 29L20 29L20 31L19 31L19 32L20 32L20 33L19 33L19 34L20 34L20 35L19 35L19 37L20 37L20 38L21 38L21 37L20 37L20 36L21 36L21 33L22 33L22 32L21 32L21 31L22 31L22 29L23 29L23 28L24 28L24 25L23 25L23 24L24 24L24 23L26 23L26 24L29 24L29 28L31 28L31 29L33 29L33 28L31 28L31 26L30 26L30 23L31 23L31 25L32 25L32 27L33 27L33 24L34 24L34 26L36 26L36 25L35 25L35 24L34 24L34 22L33 22L33 19L32 19L32 21L31 21L31 20L30 20L30 19L31 19L31 18L30 18L30 17L29 17L29 18L28 18L28 19L27 19L27 18L25 18L25 19L24 19L24 15ZM47 15L47 16L48 16L48 17L49 17L49 16L48 16L48 15ZM16 16L16 17L18 17L18 16ZM2 17L2 18L1 18L1 21L3 21L3 23L2 23L2 25L3 25L3 24L7 24L7 23L4 23L4 19L3 19L3 18L4 18L4 17ZM21 17L21 21L22 21L22 22L21 22L21 23L22 23L22 22L23 22L23 23L24 23L24 21L22 21L22 20L24 20L24 19L23 19L23 18L22 18L22 17ZM44 17L44 18L45 18L45 17ZM29 18L29 19L28 19L28 20L29 20L29 19L30 19L30 18ZM2 19L2 20L3 20L3 19ZM25 19L25 20L26 20L26 21L27 21L27 20L26 20L26 19ZM6 20L6 21L7 21L7 20ZM30 21L30 22L29 22L29 23L30 23L30 22L31 22L31 21ZM46 21L46 22L48 22L48 21ZM49 21L49 22L50 22L50 21ZM15 23L15 24L16 24L16 23ZM32 23L32 24L33 24L33 23ZM47 23L47 24L49 24L49 26L51 26L51 25L50 25L50 24L51 24L51 23L50 23L50 24L49 24L49 23ZM5 25L5 28L8 28L8 25ZM13 25L13 26L14 26L14 25ZM15 25L15 26L16 26L16 25ZM25 25L25 28L28 28L28 25ZM45 25L45 28L48 28L48 25ZM3 26L3 27L4 27L4 26ZM6 26L6 27L7 27L7 26ZM26 26L26 27L27 27L27 26ZM37 26L37 27L36 27L36 28L38 28L38 30L36 30L36 32L37 32L37 31L38 31L38 30L39 30L39 31L40 31L40 30L39 30L39 28L40 28L40 29L41 29L41 30L42 30L42 29L41 29L41 28L40 28L40 27L39 27L39 28L38 28L38 26ZM46 26L46 27L47 27L47 26ZM34 27L34 28L35 28L35 27ZM49 27L49 30L50 30L50 28L51 28L51 27ZM0 29L0 30L1 30L1 29ZM29 29L29 30L30 30L30 31L34 31L34 32L35 32L35 31L34 31L34 30L35 30L35 29L34 29L34 30L30 30L30 29ZM46 29L46 31L48 31L48 29ZM6 32L6 33L7 33L7 32ZM30 33L30 34L31 34L31 33ZM39 33L39 34L38 34L38 35L37 35L37 34L36 34L36 35L37 35L37 36L35 36L35 38L34 38L34 37L33 37L33 38L32 38L32 37L30 37L30 38L28 38L28 37L26 37L26 39L25 39L25 40L26 40L26 39L27 39L27 41L26 41L26 42L27 42L27 43L29 43L29 40L30 40L30 42L31 42L31 40L33 40L33 43L32 43L32 44L33 44L33 43L34 43L34 44L35 44L35 45L36 45L36 46L34 46L34 47L38 47L38 49L39 49L39 50L37 50L37 48L36 48L36 49L35 49L35 50L36 50L36 51L39 51L39 50L40 50L40 49L39 49L39 48L41 48L41 47L42 47L42 48L43 48L43 47L42 47L42 46L41 46L41 47L40 47L40 44L41 44L41 43L40 43L40 42L37 42L37 40L36 40L36 42L34 42L34 41L35 41L35 38L36 38L36 39L37 39L37 38L38 38L38 39L40 39L40 40L42 40L42 38L41 38L41 39L40 39L40 36L41 36L41 35L40 35L40 33ZM42 33L42 34L43 34L43 33ZM17 34L17 35L18 35L18 34ZM31 35L31 36L33 36L33 35ZM38 36L38 38L39 38L39 36ZM6 37L6 38L7 38L7 37ZM27 38L27 39L28 39L28 40L29 40L29 39L28 39L28 38ZM30 38L30 40L31 40L31 38ZM45 38L45 40L46 40L46 41L49 41L49 45L50 45L50 46L51 46L51 45L50 45L50 44L51 44L51 43L50 43L50 40L51 40L51 39L50 39L50 38L49 38L49 39L47 39L47 38ZM46 39L46 40L47 40L47 39ZM49 39L49 40L50 40L50 39ZM2 40L2 43L3 43L3 40ZM17 40L17 41L18 41L18 40ZM38 40L38 41L39 41L39 40ZM13 41L13 43L15 43L15 42L16 42L16 41L15 41L15 42L14 42L14 41ZM27 41L27 42L28 42L28 41ZM36 42L36 43L35 43L35 44L37 44L37 42ZM44 42L44 43L45 43L45 44L46 44L46 43L47 43L47 44L48 44L48 43L47 43L47 42ZM10 43L10 44L8 44L8 45L9 45L9 46L10 46L10 47L11 47L11 46L10 46L10 45L12 45L12 46L13 46L13 45L12 45L12 44L11 44L11 43ZM38 43L38 46L39 46L39 44L40 44L40 43ZM22 44L22 45L23 45L23 49L22 49L22 50L23 50L23 49L24 49L24 45L23 45L23 44ZM43 44L43 45L44 45L44 44ZM25 45L25 48L28 48L28 45ZM45 45L45 48L48 48L48 45ZM26 46L26 47L27 47L27 46ZM46 46L46 47L47 47L47 46ZM8 48L8 53L10 53L10 52L9 52L9 48ZM16 48L16 49L15 49L15 50L16 50L16 49L18 49L18 48ZM26 49L26 50L27 50L27 49ZM51 50L51 51L50 51L50 52L51 52L51 51L52 51L52 50ZM18 52L18 53L19 53L19 52ZM0 0L0 7L7 7L7 0ZM1 1L1 6L6 6L6 1ZM2 2L2 5L5 5L5 2ZM46 0L46 7L53 7L53 0ZM47 1L47 6L52 6L52 1ZM48 2L48 5L51 5L51 2ZM0 46L0 53L7 53L7 46ZM1 47L1 52L6 52L6 47ZM2 48L2 51L5 51L5 48Z" fill="#000000"/></g></g></svg>
