<?xml version="1.0" encoding="UTF-8"?>
<svg xmlns="http://www.w3.org/2000/svg" version="1.1" width="300" height="300" viewBox="0 0 300 300"><rect x="0" y="0" width="300" height="300" fill="#ffffff"/><g transform="scale(5.66)"><g transform="translate(0,0)"><path fill-rule="evenodd" d="M8 0L8 1L10 1L10 2L8 2L8 5L9 5L9 6L8 6L8 7L9 7L9 6L10 6L10 7L11 7L11 9L10 9L10 8L8 8L8 9L7 9L7 8L6 8L6 9L7 9L7 10L5 10L5 9L4 9L4 8L0 8L0 9L1 9L1 10L0 10L0 11L1 11L1 10L2 10L2 9L3 9L3 12L4 12L4 13L3 13L3 14L1 14L1 13L2 13L2 12L1 12L1 13L0 13L0 14L1 14L1 16L2 16L2 17L1 17L1 18L0 18L0 20L1 20L1 21L0 21L0 22L1 22L1 21L2 21L2 17L3 17L3 16L4 16L4 19L5 19L5 23L7 23L7 24L4 24L4 22L2 22L2 24L4 24L4 29L3 29L3 30L2 30L2 28L3 28L3 27L2 27L2 25L1 25L1 23L0 23L0 28L1 28L1 29L0 29L0 30L2 30L2 31L1 31L1 32L0 32L0 34L3 34L3 33L4 33L4 32L5 32L5 31L8 31L8 32L6 32L6 33L7 33L7 34L5 34L5 35L3 35L3 37L2 37L2 39L0 39L0 40L3 40L3 43L2 43L2 41L1 41L1 42L0 42L0 43L1 43L1 44L3 44L3 45L4 45L4 44L3 44L3 43L9 43L9 45L8 45L8 44L6 44L6 45L8 45L8 46L9 46L9 47L10 47L10 46L11 46L11 47L13 47L13 48L14 48L14 47L15 47L15 46L16 46L16 48L17 48L17 50L15 50L15 49L12 49L12 48L11 48L11 49L12 49L12 51L13 51L13 52L12 52L12 53L14 53L14 51L13 51L13 50L15 50L15 52L16 52L16 53L18 53L18 52L23 52L23 53L24 53L24 52L23 52L23 50L25 50L25 51L26 51L26 52L25 52L25 53L27 53L27 49L28 49L28 52L29 52L29 53L31 53L31 52L32 52L32 53L34 53L34 52L36 52L36 51L37 51L37 53L39 53L39 52L38 52L38 51L39 51L39 48L38 48L38 47L36 47L36 44L38 44L38 43L39 43L39 44L40 44L40 45L39 45L39 46L40 46L40 45L41 45L41 44L42 44L42 43L41 43L41 41L40 41L40 40L41 40L41 39L42 39L42 40L44 40L44 41L43 41L43 42L44 42L44 43L43 43L43 45L42 45L42 47L41 47L41 48L42 48L42 49L40 49L40 52L41 52L41 53L42 53L42 52L43 52L43 50L44 50L44 49L47 49L47 52L45 52L45 51L44 51L44 53L47 53L47 52L48 52L48 53L49 53L49 52L48 52L48 50L49 50L49 51L51 51L51 53L52 53L52 50L49 50L49 49L50 49L50 48L49 48L49 47L50 47L50 45L51 45L51 46L53 46L53 43L51 43L51 42L52 42L52 41L53 41L53 40L52 40L52 39L53 39L53 36L52 36L52 35L51 35L51 36L50 36L50 34L49 34L49 33L51 33L51 34L53 34L53 31L52 31L52 33L51 33L51 31L50 31L50 30L52 30L52 29L50 29L50 27L49 27L49 26L51 26L51 28L53 28L53 25L52 25L52 22L53 22L53 19L52 19L52 22L51 22L51 19L49 19L49 17L48 17L48 13L49 13L49 14L50 14L50 15L49 15L49 16L50 16L50 15L51 15L51 17L52 17L52 15L53 15L53 12L52 12L52 10L53 10L53 8L52 8L52 9L51 9L51 8L48 8L48 9L51 9L51 10L46 10L46 8L44 8L44 7L45 7L45 6L44 6L44 7L43 7L43 3L44 3L44 4L45 4L45 3L44 3L44 1L43 1L43 0L42 0L42 1L41 1L41 0L40 0L40 1L39 1L39 2L40 2L40 1L41 1L41 2L43 2L43 3L42 3L42 7L41 7L41 5L40 5L40 8L39 8L39 4L40 4L40 3L38 3L38 2L37 2L37 1L38 1L38 0L37 0L37 1L36 1L36 2L35 2L35 1L34 1L34 2L35 2L35 3L33 3L33 1L32 1L32 3L33 3L33 4L32 4L32 5L33 5L33 4L35 4L35 5L37 5L37 6L36 6L36 7L35 7L35 6L34 6L34 7L33 7L33 6L32 6L32 7L31 7L31 5L30 5L30 4L31 4L31 3L30 3L30 4L29 4L29 3L28 3L28 1L29 1L29 0L27 0L27 1L26 1L26 2L25 2L25 4L24 4L24 3L23 3L23 4L22 4L22 3L21 3L21 2L20 2L20 3L19 3L19 2L18 2L18 1L21 1L21 0L18 0L18 1L17 1L17 2L16 2L16 0L15 0L15 1L14 1L14 0L13 0L13 1L11 1L11 0ZM24 0L24 1L25 1L25 0ZM30 0L30 2L31 2L31 0ZM13 1L13 2L12 2L12 3L11 3L11 5L12 5L12 6L11 6L11 7L12 7L12 9L13 9L13 10L9 10L9 9L8 9L8 11L6 11L6 12L8 12L8 13L9 13L9 14L7 14L7 13L5 13L5 15L4 15L4 16L5 16L5 19L6 19L6 20L7 20L7 21L6 21L6 22L7 22L7 21L10 21L10 22L8 22L8 24L9 24L9 26L10 26L10 27L9 27L9 29L8 29L8 31L9 31L9 32L8 32L8 33L10 33L10 32L13 32L13 31L15 31L15 32L14 32L14 34L11 34L11 35L10 35L10 34L7 34L7 35L5 35L5 37L6 37L6 38L4 38L4 37L3 37L3 40L5 40L5 42L10 42L10 45L13 45L13 47L14 47L14 45L15 45L15 43L14 43L14 42L15 42L15 41L16 41L16 42L17 42L17 44L16 44L16 46L17 46L17 48L18 48L18 50L17 50L17 51L16 51L16 52L17 52L17 51L18 51L18 50L19 50L19 49L20 49L20 50L21 50L21 51L22 51L22 50L23 50L23 49L24 49L24 48L22 48L22 50L21 50L21 48L20 48L20 46L21 46L21 47L24 47L24 46L21 46L21 45L22 45L22 44L23 44L23 45L24 45L24 44L27 44L27 43L26 43L26 42L25 42L25 41L24 41L24 40L25 40L25 39L24 39L24 38L25 38L25 37L24 37L24 38L22 38L22 39L23 39L23 41L24 41L24 42L22 42L22 41L20 41L20 43L18 43L18 42L19 42L19 40L21 40L21 39L19 39L19 38L17 38L17 37L15 37L15 36L16 36L16 35L17 35L17 34L18 34L18 35L19 35L19 37L20 37L20 35L21 35L21 36L22 36L22 37L23 37L23 36L22 36L22 35L23 35L23 33L22 33L22 32L24 32L24 33L25 33L25 34L24 34L24 36L25 36L25 35L26 35L26 37L27 37L27 38L26 38L26 40L27 40L27 42L28 42L28 40L30 40L30 39L29 39L29 38L28 38L28 37L27 37L27 35L28 35L28 33L29 33L29 34L30 34L30 32L31 32L31 30L33 30L33 31L32 31L32 33L31 33L31 35L29 35L29 37L30 37L30 38L32 38L32 37L33 37L33 38L34 38L34 40L33 40L33 42L31 42L31 41L32 41L32 40L31 40L31 41L29 41L29 43L28 43L28 44L29 44L29 47L30 47L30 44L29 44L29 43L32 43L32 45L31 45L31 49L30 49L30 48L29 48L29 49L30 49L30 50L29 50L29 52L30 52L30 50L32 50L32 51L33 51L33 52L34 52L34 51L36 51L36 50L35 50L35 49L36 49L36 48L35 48L35 47L34 47L34 46L35 46L35 45L34 45L34 46L33 46L33 43L34 43L34 44L36 44L36 42L37 42L37 43L38 43L38 42L39 42L39 43L40 43L40 41L38 41L38 40L39 40L39 39L40 39L40 38L41 38L41 35L42 35L42 36L43 36L43 37L42 37L42 38L43 38L43 37L44 37L44 35L42 35L42 32L41 32L41 33L39 33L39 31L38 31L38 30L40 30L40 31L41 31L41 30L42 30L42 31L44 31L44 32L45 32L45 33L46 33L46 31L47 31L47 33L48 33L48 32L49 32L49 31L48 31L48 30L49 30L49 29L47 29L47 30L46 30L46 29L45 29L45 30L46 30L46 31L44 31L44 30L43 30L43 29L41 29L41 28L42 28L42 27L41 27L41 28L39 28L39 27L40 27L40 26L41 26L41 25L42 25L42 26L43 26L43 28L44 28L44 26L43 26L43 24L46 24L46 22L47 22L47 20L48 20L48 22L50 22L50 23L49 23L49 25L50 25L50 24L51 24L51 22L50 22L50 20L48 20L48 17L47 17L47 12L48 12L48 11L45 11L45 9L44 9L44 11L40 11L40 13L39 13L39 12L38 12L38 11L39 11L39 8L38 8L38 6L37 6L37 8L36 8L36 9L38 9L38 10L36 10L36 11L35 11L35 13L33 13L33 12L34 12L34 10L35 10L35 7L34 7L34 9L33 9L33 7L32 7L32 11L29 11L29 10L30 10L30 9L31 9L31 8L29 8L29 10L28 10L28 9L27 9L27 11L25 11L25 10L24 10L24 8L22 8L22 6L23 6L23 7L24 7L24 5L22 5L22 6L21 6L21 7L20 7L20 5L17 5L17 4L16 4L16 2L14 2L14 1ZM22 1L22 2L23 2L23 1ZM13 2L13 3L12 3L12 5L14 5L14 7L15 7L15 5L14 5L14 4L13 4L13 3L14 3L14 2ZM26 2L26 3L27 3L27 4L28 4L28 3L27 3L27 2ZM9 3L9 5L10 5L10 3ZM35 3L35 4L36 4L36 3ZM37 3L37 5L38 5L38 3ZM25 5L25 8L28 8L28 5ZM12 6L12 7L13 7L13 6ZM16 6L16 11L15 11L15 10L14 10L14 11L13 11L13 12L14 12L14 11L15 11L15 12L16 12L16 13L17 13L17 14L15 14L15 16L14 16L14 13L13 13L13 15L11 15L11 14L12 14L12 11L11 11L11 14L10 14L10 15L9 15L9 16L6 16L6 15L7 15L7 14L6 14L6 15L5 15L5 16L6 16L6 17L7 17L7 18L6 18L6 19L8 19L8 18L9 18L9 19L10 19L10 20L11 20L11 23L9 23L9 24L10 24L10 25L11 25L11 26L13 26L13 27L14 27L14 26L17 26L17 27L16 27L16 28L14 28L14 30L15 30L15 31L17 31L17 32L15 32L15 34L14 34L14 35L13 35L13 36L9 36L9 35L8 35L8 36L9 36L9 37L7 37L7 36L6 36L6 37L7 37L7 38L6 38L6 39L7 39L7 38L9 38L9 39L8 39L8 40L6 40L6 41L9 41L9 40L11 40L11 39L12 39L12 40L13 40L13 42L12 42L12 43L11 43L11 44L14 44L14 43L13 43L13 42L14 42L14 40L17 40L17 42L18 42L18 40L19 40L19 39L15 39L15 38L14 38L14 40L13 40L13 39L12 39L12 38L13 38L13 36L14 36L14 35L16 35L16 33L18 33L18 34L21 34L21 33L20 33L20 32L19 32L19 31L18 31L18 30L19 30L19 29L17 29L17 28L19 28L19 27L18 27L18 26L17 26L17 25L16 25L16 24L18 24L18 25L20 25L20 26L21 26L21 25L20 25L20 23L23 23L23 21L24 21L24 23L25 23L25 24L24 24L24 28L23 28L23 27L21 27L21 28L23 28L23 29L24 29L24 30L23 30L23 31L24 31L24 32L25 32L25 31L26 31L26 32L27 32L27 29L28 29L28 31L30 31L30 30L29 30L29 29L30 29L30 28L32 28L32 29L33 29L33 28L34 28L34 27L32 27L32 26L30 26L30 25L31 25L31 24L29 24L29 23L28 23L28 22L29 22L29 21L27 21L27 19L28 19L28 17L29 17L29 16L30 16L30 15L31 15L31 14L30 14L30 13L32 13L32 12L29 12L29 11L27 11L27 12L25 12L25 11L24 11L24 10L23 10L23 11L22 11L22 12L21 12L21 13L20 13L20 11L21 11L21 10L22 10L22 8L21 8L21 10L19 10L19 9L17 9L17 6ZM18 6L18 7L19 7L19 8L20 8L20 7L19 7L19 6ZM26 6L26 7L27 7L27 6ZM29 6L29 7L30 7L30 6ZM14 8L14 9L15 9L15 8ZM42 8L42 9L43 9L43 8ZM4 10L4 12L5 12L5 10ZM17 10L17 11L16 11L16 12L17 12L17 11L18 11L18 12L19 12L19 10ZM8 11L8 12L9 12L9 13L10 13L10 11ZM36 11L36 13L35 13L35 14L36 14L36 13L37 13L37 11ZM44 11L44 13L43 13L43 14L42 14L42 13L41 13L41 14L40 14L40 15L39 15L39 13L38 13L38 14L37 14L37 16L39 16L39 19L38 19L38 18L35 18L35 16L33 16L33 15L34 15L34 14L33 14L33 15L32 15L32 17L33 17L33 19L36 19L36 20L35 20L35 22L34 22L34 21L33 21L33 22L32 22L32 18L31 18L31 19L30 19L30 18L29 18L29 20L30 20L30 23L31 23L31 22L32 22L32 24L33 24L33 23L34 23L34 24L35 24L35 26L37 26L37 28L38 28L38 29L39 29L39 28L38 28L38 27L39 27L39 23L43 23L43 22L44 22L44 23L45 23L45 22L46 22L46 21L45 21L45 20L46 20L46 19L47 19L47 17L46 17L46 15L45 15L45 16L43 16L43 14L46 14L46 13L45 13L45 11ZM49 11L49 12L51 12L51 13L50 13L50 14L52 14L52 12L51 12L51 11ZM22 12L22 13L23 13L23 14L24 14L24 13L25 13L25 16L24 16L24 15L22 15L22 14L19 14L19 15L16 15L16 17L14 17L14 16L13 16L13 17L12 17L12 16L11 16L11 15L10 15L10 16L11 16L11 17L10 17L10 18L11 18L11 20L14 20L14 21L15 21L15 20L16 20L16 23L15 23L15 22L14 22L14 23L15 23L15 24L16 24L16 23L17 23L17 22L18 22L18 24L19 24L19 19L20 19L20 20L21 20L21 21L20 21L20 22L22 22L22 20L23 20L23 18L26 18L26 19L27 19L27 16L29 16L29 15L27 15L27 14L26 14L26 13L25 13L25 12ZM28 12L28 14L29 14L29 12ZM2 15L2 16L3 16L3 15ZM19 15L19 16L18 16L18 17L19 17L19 16L20 16L20 19L22 19L22 18L23 18L23 17L21 17L21 15ZM25 16L25 17L26 17L26 16ZM40 16L40 17L41 17L41 18L40 18L40 19L43 19L43 20L44 20L44 18L45 18L45 19L46 19L46 17L43 17L43 16L42 16L42 17L41 17L41 16ZM11 17L11 18L12 18L12 17ZM16 17L16 18L17 18L17 21L18 21L18 18L17 18L17 17ZM14 18L14 19L15 19L15 18ZM24 19L24 21L25 21L25 22L27 22L27 21L25 21L25 19ZM37 19L37 20L36 20L36 21L37 21L37 20L38 20L38 19ZM3 20L3 21L4 21L4 20ZM39 20L39 21L38 21L38 23L37 23L37 24L38 24L38 23L39 23L39 21L40 21L40 20ZM41 20L41 22L42 22L42 20ZM12 21L12 25L13 25L13 26L14 26L14 25L13 25L13 21ZM44 21L44 22L45 22L45 21ZM35 22L35 23L36 23L36 22ZM26 23L26 24L27 24L27 23ZM47 23L47 24L48 24L48 23ZM22 24L22 25L23 25L23 24ZM5 25L5 28L8 28L8 25ZM25 25L25 28L28 28L28 25ZM33 25L33 26L34 26L34 25ZM45 25L45 28L48 28L48 25ZM51 25L51 26L52 26L52 25ZM6 26L6 27L7 27L7 26ZM26 26L26 27L27 27L27 26ZM46 26L46 27L47 27L47 26ZM1 27L1 28L2 28L2 27ZM11 27L11 28L12 28L12 29L13 29L13 28L12 28L12 27ZM6 29L6 30L7 30L7 29ZM10 29L10 30L11 30L11 29ZM15 29L15 30L16 30L16 29ZM21 29L21 30L20 30L20 31L21 31L21 32L22 32L22 29ZM25 29L25 30L26 30L26 29ZM34 29L34 31L33 31L33 32L34 32L34 33L33 33L33 34L32 34L32 35L31 35L31 36L30 36L30 37L31 37L31 36L33 36L33 37L35 37L35 39L36 39L36 37L37 37L37 40L38 40L38 39L39 39L39 37L40 37L40 35L37 35L37 34L38 34L38 33L36 33L36 36L35 36L35 34L34 34L34 33L35 33L35 32L37 32L37 30L36 30L36 29ZM40 29L40 30L41 30L41 29ZM3 30L3 32L1 32L1 33L3 33L3 32L4 32L4 31L5 31L5 30ZM12 30L12 31L13 31L13 30ZM35 30L35 31L36 31L36 30ZM26 33L26 35L27 35L27 33ZM33 34L33 36L34 36L34 34ZM45 34L45 38L44 38L44 39L46 39L46 38L48 38L48 39L47 39L47 40L49 40L49 41L48 41L48 42L46 42L46 41L45 41L45 42L46 42L46 43L44 43L44 44L46 44L46 43L48 43L48 44L49 44L49 45L50 45L50 42L51 42L51 39L52 39L52 37L50 37L50 36L49 36L49 34ZM0 35L0 36L1 36L1 35ZM38 36L38 37L39 37L39 36ZM46 36L46 37L47 37L47 36ZM9 37L9 38L10 38L10 39L11 39L11 38L12 38L12 37ZM49 37L49 40L50 40L50 39L51 39L51 38L50 38L50 37ZM27 39L27 40L28 40L28 39ZM34 40L34 43L35 43L35 42L36 42L36 40ZM10 41L10 42L11 42L11 41ZM37 41L37 42L38 42L38 41ZM49 41L49 42L50 42L50 41ZM21 42L21 43L20 43L20 44L19 44L19 45L21 45L21 43L22 43L22 42ZM24 42L24 43L25 43L25 42ZM17 44L17 45L18 45L18 44ZM51 44L51 45L52 45L52 44ZM25 45L25 48L28 48L28 45ZM37 45L37 46L38 46L38 45ZM45 45L45 48L48 48L48 45ZM18 46L18 48L19 48L19 46ZM26 46L26 47L27 47L27 46ZM32 46L32 48L33 48L33 49L35 49L35 48L33 48L33 46ZM43 46L43 49L42 49L42 50L41 50L41 52L42 52L42 50L43 50L43 49L44 49L44 46ZM46 46L46 47L47 47L47 46ZM37 48L37 51L38 51L38 48ZM51 48L51 49L52 49L52 48ZM8 49L8 53L9 53L9 52L10 52L10 53L11 53L11 51L9 51L9 49ZM25 49L25 50L26 50L26 49ZM0 0L0 7L7 7L7 0ZM1 1L1 6L6 6L6 1ZM2 2L2 5L5 5L5 2ZM46 0L46 7L53 7L53 0ZM47 1L47 6L52 6L52 1ZM48 2L48 5L51 5L51 2ZM0 46L0 53L7 53L7 46ZM1 47L1 52L6 52L6 47ZM2 48L2 51L5 51L5 48Z" fill="#000000"/></g></g></svg>
